<svg width="127" height="144" viewBox="0 0 127 144" fill="none" xmlns="http://www.w3.org/2000/svg">
<path fill-rule="evenodd" clip-rule="evenodd" d="M79.0877 54.9519L79.4975 60.6719L81.8244 58.7876L81.2967 52.6178L83.1454 51.1207L86.3719 55.1051L88.4863 53.3929L79.5726 42.3853L75.1738 45.9474C73.9767 46.9167 73.2643 47.9921 73.0364 49.1736C72.8099 50.3422 73.144 51.479 74.0388 52.584C74.687 53.3844 75.4736 53.8851 76.3986 54.086C77.3236 54.2869 78.1972 54.207 79.0193 53.8462L79.0365 53.8675L79.0415 54.0041C79.0378 54.1009 79.0394 54.2404 79.0462 54.4226C79.0529 54.6048 79.0668 54.7812 79.0877 54.9519ZM78.0039 51.8537C77.2992 51.8379 76.6801 51.5007 76.1466 50.8419C75.0797 49.5244 75.3219 48.2376 76.8732 46.9814L78.637 45.5532L81.8978 49.5801L80.0703 51.0599C79.3974 51.6049 78.7086 51.8694 78.0039 51.8537ZM68.588 70.7933L58.936 60.4271L60.8371 58.6569L66.5948 64.8406C67.2718 65.5677 67.6835 66.05 67.8298 66.2873L67.8698 66.2501C67.7822 65.9954 67.6573 65.2461 67.4954 64.0021L66.2104 53.6538L68.1315 51.8651L77.7836 62.2313L75.8624 64.0201L70.1047 57.8364C69.9246 57.6429 69.6831 57.3634 69.3801 56.9979C69.0709 56.6257 68.9039 56.4263 68.8791 56.3996L68.839 56.4369C68.8749 56.5156 69.0033 57.2553 69.2242 58.6562L70.4892 69.0231L68.588 70.7933ZM47.2168 72.8602L57.5979 82.4962L59.4396 80.5121L54.9905 76.3824L59.8736 71.1217L64.3227 75.2514L66.1643 73.2674L55.7831 63.6314L53.9415 65.6154L58.1701 69.5405L53.287 74.8012L49.0584 70.8762L47.2168 72.8602ZM42.2646 90.115C41.4061 89.4227 40.7294 88.6428 40.2346 87.7754C39.7327 86.9023 39.4344 86.0235 39.3396 85.1392C39.2435 84.242 39.3288 83.3449 39.5957 82.4477C39.8683 81.5434 40.3192 80.7011 40.9486 79.9206C41.7611 78.9131 42.6997 78.2357 43.7644 77.8883C44.8277 77.528 45.8891 77.4823 46.9485 77.7512C48.0079 78.0202 49.0165 78.5408 49.9744 79.3132C50.1517 79.4563 50.4233 79.7221 50.789 80.1107L44.3179 88.1351C45.5002 89.0066 46.7067 89.3473 47.9373 89.1571C49.1737 88.9598 50.2095 88.3432 51.0449 87.3074C51.514 86.7256 51.864 86.0593 52.0947 85.3086C52.324 84.5451 52.4174 83.7832 52.3748 83.0229L54.6389 83.3734C54.6979 84.2875 54.5546 85.2492 54.2091 86.2585C53.8692 87.2608 53.3903 88.145 52.7724 88.9112C51.8569 90.0464 50.784 90.8615 49.5536 91.3563C48.3218 91.8383 47.0687 91.9693 45.7941 91.7494C44.5195 91.5295 43.343 90.9847 42.2646 90.115ZM42.8475 86.844L47.6108 80.9374C46.6726 80.2277 45.7486 79.9216 44.8386 80.0191C43.9215 80.1109 43.1597 80.5328 42.5532 81.2849C41.8838 82.115 41.5706 83.0333 41.6136 84.0399C41.6553 85.0336 42.0666 85.9683 42.8475 86.844ZM29.8115 95.4138L41.3715 103.598L42.9357 101.389L33.2727 94.5475L36.8357 89.5152L34.9388 88.1721L29.8115 95.4138ZM33.551 115.886L21.5267 108.401L24.6192 103.433C25.39 102.195 26.2663 101.383 27.2482 100.995C28.2301 100.608 29.2162 100.723 30.2066 101.339C30.7947 101.705 31.2269 102.184 31.5033 102.775C31.7797 103.365 31.8692 104.006 31.7719 104.697L31.7951 104.712C32.4259 104.095 33.1233 103.751 33.8874 103.679C34.6563 103.6 35.3851 103.774 36.0738 104.203C37.1648 104.882 37.7577 105.809 37.8525 106.985C37.9473 108.161 37.5781 109.418 36.7447 110.756L33.551 115.886ZM33.3684 112.584L34.9074 110.112C35.4084 109.307 35.6202 108.596 35.5428 107.979C35.4624 107.349 35.1321 106.854 34.5518 106.492C33.956 106.121 33.3568 106.049 32.7544 106.275C32.149 106.489 31.6006 106.99 31.1093 107.78L29.5847 110.228L33.3684 112.584ZM28.041 109.267L29.45 107.004C29.8691 106.331 30.0245 105.719 29.9163 105.169C29.8129 104.61 29.4749 104.153 28.9023 103.797C27.7958 103.108 26.7994 103.475 25.9131 104.899L24.5474 107.093L28.041 109.267ZM26.5439 128.779L9.09783 119.48L14.5125 109.322L16.636 110.453L12.5267 118.163L17.9922 121.076L21.3233 114.826L23.4468 115.958L20.1157 122.208L25.7259 125.198L30.0602 117.066L32.1837 118.198L26.5439 128.779Z" fill="#05203E"/>
</svg>
