<svg width="30" height="31" viewBox="0 0 30 31" fill="none" xmlns="http://www.w3.org/2000/svg">
<path d="M3.12442 11.75H26.8744M12.4994 4.25L9.99942 11.75L14.9994 26.125L19.9994 11.75L17.4994 4.25M15.7676 25.8281L26.9659 12.3902C27.1557 12.1624 27.2506 12.0486 27.2869 11.9215C27.3188 11.8094 27.3188 11.6906 27.2869 11.5785C27.2506 11.4514 27.1557 11.3376 26.9659 11.1098L21.5493 4.60982C21.439 4.47755 21.3839 4.41142 21.3164 4.36388C21.2565 4.32176 21.1897 4.29048 21.1191 4.27146C21.0393 4.25 20.9532 4.25 20.781 4.25H9.2178C9.04563 4.25 8.95955 4.25 8.87978 4.27146C8.8091 4.29048 8.74231 4.32176 8.68245 4.36388C8.6149 4.41142 8.55979 4.47756 8.44957 4.60982L3.03291 11.1098C2.84312 11.3376 2.74823 11.4514 2.71197 11.5785C2.68 11.6906 2.68 11.8094 2.71197 11.9215C2.74823 12.0486 2.84312 12.1624 3.03291 12.3902L14.2312 25.8281C14.495 26.1447 14.6269 26.303 14.7849 26.3607C14.9234 26.4114 15.0754 26.4114 15.214 26.3607C15.3719 26.303 15.5038 26.1447 15.7676 25.8281Z" stroke="#D58CF7" stroke-width="2.5" stroke-linecap="round" stroke-linejoin="round"/>
</svg>
