<svg width="30" height="31" viewBox="0 0 30 31" fill="none" xmlns="http://www.w3.org/2000/svg">
<path d="M15.0002 6.125C15.0002 5.71462 14.9194 5.30826 14.7623 4.92912C14.6053 4.54997 14.3751 4.20548 14.0849 3.91529C13.7948 3.62511 13.4503 3.39492 13.0711 3.23788C12.692 3.08083 12.2856 3 11.8752 3C11.1456 2.99922 10.4387 3.25376 9.87707 3.71951C9.31544 4.18525 8.93447 4.83284 8.80022 5.55C8.38817 5.6272 7.99585 5.78652 7.64664 6.01848C7.29743 6.25044 6.99846 6.55029 6.76754 6.90018C6.53661 7.25007 6.37844 7.64285 6.30245 8.05513C6.22646 8.46741 6.23421 8.89077 6.32522 9.3C5.76105 9.40016 5.23528 9.6535 4.80538 10.0323C4.37549 10.4112 4.05802 10.9009 3.8877 11.448C3.71738 11.9951 3.70076 12.5785 3.83965 13.1344C3.97854 13.6903 4.2676 14.1973 4.67522 14.6C3.98964 14.9165 3.41558 15.4326 3.02818 16.0808C2.64078 16.729 2.45809 17.479 2.50401 18.2327C2.54994 18.9865 2.82234 19.7088 3.28558 20.3051C3.74881 20.9015 4.38128 21.3441 5.10022 21.575C4.96296 22.0936 4.96149 22.6387 5.09596 23.158C5.23043 23.6773 5.49631 24.1533 5.86801 24.5401C6.23971 24.9268 6.70472 25.2114 7.21827 25.3664C7.73182 25.5214 8.27661 25.5416 8.80022 25.425C8.93916 26.1924 9.35998 26.8801 9.98004 27.353C10.6001 27.8259 11.3746 28.05 12.1514 27.981C12.9282 27.9121 13.6511 27.5553 14.1782 26.9806C14.7053 26.4059 14.9985 25.6548 15.0002 24.875M15.0002 6.125V24.875M15.0002 6.125C15.0002 5.2962 15.3295 4.50134 15.9155 3.91529C16.5016 3.32924 17.2964 3 18.1252 3C18.8548 2.99922 19.5617 3.25376 20.1234 3.71951C20.685 4.18525 21.066 4.83284 21.2002 5.55C21.6123 5.6272 22.0046 5.78652 22.3538 6.01848C22.703 6.25044 23.002 6.55029 23.2329 6.90018C23.4638 7.25007 23.622 7.64285 23.698 8.05513C23.774 8.46741 23.7662 8.89077 23.6752 9.3C24.2394 9.40016 24.7652 9.6535 25.1951 10.0323C25.625 10.4112 25.9424 10.9009 26.1127 11.448C26.2831 11.9951 26.2997 12.5785 26.1608 13.1344C26.0219 13.6903 25.7328 14.1973 25.3252 14.6C26.0108 14.9165 26.5849 15.4326 26.9723 16.0808C27.3597 16.729 27.5424 17.479 27.4964 18.2327C27.4505 18.9865 27.1781 19.7088 26.7149 20.3051C26.2516 20.9015 25.6192 21.3441 24.9002 21.575C25.0375 22.0936 25.039 22.6387 24.9045 23.158C24.77 23.6773 24.5041 24.1533 24.1324 24.5401C23.7607 24.9268 23.2957 25.2114 22.7822 25.3664C22.2686 25.5214 21.7238 25.5416 21.2002 25.425C21.0613 26.1924 20.6405 26.8801 20.0204 27.353C19.4004 27.8259 18.6259 28.05 17.8491 27.981C17.0723 27.9121 16.3493 27.5553 15.8222 26.9806C15.2951 26.4059 15.0019 25.6548 15.0002 24.875" stroke="#FAC017" stroke-width="2.5" stroke-linecap="round" stroke-linejoin="round"/>
</svg>
