<svg width="141" height="155" viewBox="0 0 141 155" fill="none" xmlns="http://www.w3.org/2000/svg">
<path fill-rule="evenodd" clip-rule="evenodd" d="M97.3548 45.8387C97.4619 46.3714 97.6864 46.8907 98.0285 47.3966C98.7431 48.4537 99.7 49.0391 100.899 49.1527C102.098 49.2662 103.234 48.9606 104.306 48.2357C105.152 47.664 105.767 46.9231 106.153 46.013C106.539 45.103 106.669 44.1794 106.541 43.2424L106.586 43.2117L106.64 43.3403C106.684 43.4209 106.752 43.5456 106.844 43.7144C106.938 43.8705 107.039 44.0279 107.146 44.1864L107.943 45.3644L110.049 43.9401L105.034 36.5214C104.033 35.0414 102.861 34.1781 101.517 33.9315C100.173 33.6848 98.7612 34.0618 97.2812 35.0624C96.4733 35.6086 95.7509 36.2895 95.1141 37.1051C94.4772 37.9207 94.0525 38.692 93.8398 39.4189L95.8562 40.4486C96.4179 38.9686 97.2613 37.8483 98.3864 37.0877C100.1 35.9289 101.537 36.2065 102.696 37.9206L102.857 38.1584L102.256 38.5643C101.856 38.8348 101.475 39.109 101.113 39.3869C100.758 39.6597 100.362 39.9935 99.9246 40.3881C99.4873 40.7828 99.1056 41.1784 98.7795 41.5749C98.4483 41.9638 98.1503 42.4018 97.8855 42.8889C97.6207 43.376 97.4393 43.8562 97.3412 44.3296C97.2456 44.7903 97.2501 45.2933 97.3548 45.8387ZM101.633 46.6262C100.986 46.5142 100.491 46.2052 100.149 45.6992C99.1123 44.1664 100.187 42.3229 103.374 40.1686L103.951 39.7781L104.25 40.2198C104.653 40.8163 104.926 41.4794 105.067 42.2091C105.203 42.9312 105.152 43.6533 104.914 44.3753C104.684 45.0922 104.255 45.6625 103.628 46.0862C102.941 46.5508 102.276 46.7308 101.633 46.6262ZM88.1889 59.905L79.4635 48.7476L81.5959 47.08L85.1501 51.6248L90.8041 47.2031L87.25 42.6583L89.3824 40.9907L98.1078 52.1481L95.9754 53.8157L92.2359 49.034L86.5818 53.4556L90.3213 58.2374L88.1889 59.905ZM65.6611 61.0899L75.2119 71.5495L77.1302 69.7979L75.9661 59.4192C75.7588 58.0162 75.6376 57.2752 75.6025 57.1962L75.6429 57.1593C75.6675 57.1862 75.8326 57.3873 76.1381 57.7625C76.4375 58.1309 76.6763 58.4127 76.8545 58.6079L82.5518 64.8473L84.4903 63.0773L74.9395 52.6177L73.001 54.3877L74.1853 64.748C74.3352 65.9935 74.4528 66.744 74.5379 66.9995L74.4976 67.0364C74.3536 66.7976 73.9466 66.3113 73.2767 65.5777L67.5794 59.3383L65.6611 61.0899ZM68.2161 86.974L53.8604 73.3818L55.59 71.5551L56.5034 72.4199L57.2213 73.2126L57.2589 73.1729C56.9505 72.2658 56.9157 71.348 57.1547 70.4195C57.3937 69.491 57.8735 68.6462 58.5942 67.8851C59.9039 66.5018 61.4405 65.8731 63.2041 65.999C64.9611 66.1186 66.647 66.943 68.2619 68.472C69.8835 70.0073 70.7738 71.6787 70.9327 73.486C71.098 75.2868 70.5352 76.8689 69.2442 78.2323C68.6301 78.8809 67.9012 79.3393 67.0574 79.6073C66.2137 79.8754 65.348 79.928 64.4602 79.7653L64.4226 79.805C64.7243 79.9902 65.0505 80.2488 65.4013 80.581L70.0773 85.0083L68.2161 86.974ZM60.8476 76.3824C61.4763 76.9777 62.1623 77.4264 62.9056 77.7285C63.6551 78.0239 64.4216 78.1158 65.2052 78.0042C65.995 77.8859 66.675 77.5256 67.2452 76.9233C68.0474 76.0761 68.3871 75.061 68.2646 73.8781C68.1482 72.6885 67.5242 71.5579 66.3924 70.4863C65.2871 69.4398 64.14 68.8683 62.951 68.7718C61.7683 68.6687 60.7697 69.0474 59.955 69.9078C59.1592 70.7484 58.8028 71.7478 58.8861 72.906C58.9693 74.0643 59.6231 75.2231 60.8476 76.3824ZM46.7917 88.1628C47.2776 89.0352 47.9463 89.8219 48.7977 90.5229C49.8672 91.4036 51.0381 91.9604 52.3103 92.1933C53.5826 92.4263 54.837 92.308 56.0736 91.8386C57.309 91.3564 58.3902 90.5524 59.3172 89.4266C59.9429 88.6667 60.4308 87.7874 60.7809 86.7887C61.1368 85.783 61.2898 84.8228 61.2401 83.9081L58.9797 83.5345C59.0146 84.2952 58.9134 85.0561 58.6763 85.8172C58.438 86.5655 58.0812 87.2282 57.6062 87.8051C56.7603 88.8324 55.7182 89.4384 54.4799 89.6231C53.2474 89.8007 52.0444 89.4477 50.8711 88.5642L57.4238 80.6063C57.0621 80.2139 56.7932 79.9453 56.6173 79.8005C55.6675 79.0183 54.6642 78.4874 53.6076 78.2077C52.5509 77.928 51.4892 77.9628 50.4222 78.3122C49.354 78.6487 48.4086 79.3166 47.5859 80.3157C46.9485 81.0897 46.489 81.9274 46.2072 82.8288C45.9312 83.7232 45.8367 84.6194 45.9237 85.5175C46.0094 86.4028 46.2987 87.2845 46.7917 88.1628ZM54.2373 81.4005L49.4139 87.2581C48.642 86.3745 48.2403 85.4357 48.2088 84.4415C48.176 83.4346 48.4986 82.5195 49.1765 81.6963C49.7906 80.9504 50.5567 80.5363 51.4746 80.4539C52.3855 80.3657 53.3064 80.6812 54.2373 81.4005ZM36.2999 99.6932L34.4123 98.3371L41.7515 88.1221L43.639 89.4782L40.7433 93.5087L50.3587 100.417L48.7871 102.604L39.1717 95.696L36.2999 99.6932ZM33.9865 115.153C34.2997 115.597 34.7149 115.982 35.2321 116.306C36.3129 116.985 37.4246 117.134 38.5674 116.753C39.7101 116.373 40.6254 115.634 41.3135 114.538C41.8562 113.673 42.1202 112.747 42.1057 111.759C42.0911 110.77 41.8363 109.873 41.3412 109.067L41.3703 109.021L41.4716 109.117C41.5439 109.173 41.6563 109.26 41.8087 109.377C41.9583 109.482 42.1141 109.585 42.2762 109.686L43.4806 110.442L44.8324 108.288L37.2475 103.528C35.7344 102.578 34.3133 102.262 32.9843 102.579C31.6552 102.897 30.5159 103.812 29.5662 105.325C29.0477 106.151 28.6619 107.066 28.4088 108.069C28.1557 109.072 28.0787 109.949 28.1778 110.7L30.4383 110.828C30.3544 109.247 30.6734 107.881 31.3953 106.731C32.4952 104.979 33.9214 104.652 35.6738 105.752L35.917 105.905L35.5318 106.519C35.275 106.928 35.037 107.333 34.8179 107.733C34.6037 108.126 34.3762 108.591 34.1356 109.129C33.895 109.667 33.7056 110.183 33.5675 110.677C33.4216 111.167 33.3259 111.688 33.2805 112.24C33.235 112.793 33.263 113.305 33.3645 113.778C33.4631 114.238 33.6705 114.697 33.9865 115.153ZM38.2187 114.145C37.5807 114.304 37.0031 114.222 36.4859 113.897C34.9187 112.913 35.1575 110.793 37.2023 107.535L37.5729 106.944L38.0246 107.228C38.6344 107.611 39.1513 108.107 39.5753 108.718C39.9915 109.323 40.2366 110.004 40.3105 110.761C40.3893 111.51 40.2276 112.205 39.8254 112.845C39.3845 113.548 38.8489 113.981 38.2187 114.145ZM32.016 130.329L19.5444 123.615L20.8276 121.231L25.8596 123.94L26.8058 122.182L23.6014 116.079L25.0661 113.358L28.752 120.73L28.8002 120.756L37.8034 119.579L36.2739 122.42L28.8661 123.23L27.894 125.035L33.2992 127.945L32.016 130.329ZM25.8341 143.637L7.83739 135.454L12.602 124.975L14.7925 125.971L11.1766 133.924L16.8146 136.487L19.7458 130.04L21.9362 131.036L19.005 137.483L24.7923 140.114L28.6063 131.726L30.7968 132.722L25.8341 143.637Z" fill="#05203E"/>
</svg>
