<svg width="143" height="153" viewBox="0 0 143 153" fill="none" xmlns="http://www.w3.org/2000/svg">
<path fill-rule="evenodd" clip-rule="evenodd" d="M95.0672 44.5109L95.2431 50.2428L97.645 48.4551L97.3696 42.2689L99.2779 40.8485L102.339 44.9613L104.522 43.3368L96.0646 31.9746L91.5241 35.3541C90.2884 36.2738 89.5327 37.3193 89.2568 38.4904C88.9827 39.6488 89.2702 40.7983 90.1192 41.9389C90.7341 42.7651 91.4996 43.2975 92.4157 43.536C93.3317 43.7745 94.2078 43.7303 95.0439 43.4034L95.0603 43.4253L95.0598 43.562C95.0521 43.6586 95.048 43.7981 95.0473 43.9803C95.0466 44.1626 95.0533 44.3395 95.0672 44.5109ZM94.1107 41.371C93.4072 41.3265 92.8024 40.9643 92.2963 40.2843C91.2841 38.9244 91.5786 37.6485 93.1799 36.4567L95.0004 35.1016L98.0943 39.2582L96.2079 40.6623C95.5133 41.1793 94.8142 41.4155 94.1107 41.371ZM83.8887 59.9293L74.6661 49.1792L76.6376 47.4878L82.1391 53.9005C82.786 54.6545 83.1777 55.1531 83.3143 55.3962L83.3558 55.3606C83.2785 55.1026 83.1843 54.3488 83.073 53.0993L82.2098 42.7073L84.2021 40.9981L93.4247 51.7482L91.4324 53.4574L85.9309 47.0447C85.7588 46.8441 85.5288 46.555 85.241 46.1775C84.9472 45.7931 84.7884 45.587 84.7647 45.5593L84.7232 45.5949C84.7558 45.675 84.854 46.4194 85.0178 47.8281L85.8602 58.2379L83.8887 59.9293ZM64.6796 61.4152C64.6659 63.4196 65.4039 65.1721 66.8937 66.6727C68.4028 68.1928 70.1531 68.9532 72.1446 68.954C74.1425 68.9484 75.9307 68.1622 77.509 66.5953C78.2852 65.8247 78.8878 64.9375 79.3168 63.9336C79.7523 62.9233 79.9556 61.9444 79.9268 60.9969L77.7443 60.3509C77.7608 61.1437 77.6129 61.9456 77.3006 62.7565C76.9818 63.561 76.5443 64.2394 75.988 64.7916C74.9531 65.8191 73.7622 66.3207 72.4152 66.2964C71.0619 66.2657 69.8715 65.7329 68.8441 64.698C67.823 63.6695 67.3053 62.4882 67.2908 61.154C67.2763 59.8198 67.7736 58.6519 68.7827 57.6501C69.3001 57.1364 69.9106 56.7423 70.6141 56.4677C71.3177 56.1802 72.0175 56.0377 72.7135 56.0403L72.2867 53.7862C71.3523 53.7506 70.4235 53.947 69.5003 54.3754C68.5707 54.7974 67.7533 55.3584 67.0483 56.0583C65.4829 57.6124 64.6934 59.398 64.6796 61.4152ZM59.6948 79.6517C59.2371 79.2473 58.8899 78.8007 58.653 78.3116C58.4153 77.8098 58.2851 77.3238 58.2625 76.8538C58.2391 76.371 58.2947 75.8607 58.4293 75.3228C58.564 74.785 58.743 74.2864 58.9664 73.827C59.183 73.3616 59.4536 72.8832 59.7784 72.3917C60.1031 71.9002 60.4031 71.4781 60.6783 71.1253C60.9596 70.7657 61.2601 70.4048 61.58 70.0428L62.0597 69.4998L61.8446 69.3097C60.294 67.9398 58.8338 68.0301 57.4639 69.5807C56.5647 70.5984 56.0282 71.894 55.8543 73.4674L53.6445 72.9746C53.6687 72.2176 53.8871 71.3646 54.2998 70.4157C54.7125 69.4668 55.2417 68.6269 55.8874 67.896C57.0702 66.5572 58.3431 65.8392 59.706 65.7419C61.069 65.6447 62.4198 66.1875 63.7586 67.3703L70.4697 73.2995L68.786 75.2052L67.7205 74.2638C67.577 74.1371 67.44 74.0099 67.3094 73.8824L67.1273 73.6875L67.019 73.571L66.9346 73.46L66.8984 73.501C67.256 74.3765 67.3618 75.303 67.2156 76.2806C67.0695 77.2583 66.6585 78.1296 65.9826 78.8946C65.1256 79.8646 64.1025 80.4445 62.9132 80.6343C61.7239 80.8241 60.6511 80.4965 59.6948 79.6517ZM61.3232 77.4781C61.7808 77.8825 62.3373 78.0579 62.9926 78.0044C63.6412 77.945 64.24 77.6044 64.7892 76.9828C65.29 76.4159 65.5624 75.7565 65.6063 75.0048C65.6563 74.2462 65.525 73.5343 65.2127 72.8692C64.8935 72.198 64.4641 71.624 63.9245 71.1473L63.5249 70.7942L63.0632 71.3168C60.5166 74.1993 59.9365 76.2531 61.3232 77.4781ZM43.1404 84.1274L44.9741 85.5556L47.9985 81.6726L57.3393 88.948L58.9943 86.8231L49.6535 79.5477L52.7031 75.6323L50.8695 74.2042L43.1404 84.1274ZM39.9395 101.311C38.1895 100.124 37.129 98.5456 36.7579 96.5759C36.3844 94.5934 36.8167 92.6895 38.0548 90.8641C38.6125 90.0418 39.307 89.3345 40.1384 88.742C40.9623 88.1444 41.8361 87.7734 42.76 87.6291L43.6114 89.7594C42.9278 89.8905 42.2683 90.1646 41.633 90.5817C40.9952 90.9861 40.4717 91.4901 40.0624 92.0935C39.2643 93.2703 39.0003 94.5119 39.2705 95.8185C39.5406 97.1252 40.2754 98.1852 41.4748 98.9987C42.6817 99.8173 43.9522 100.112 45.2863 99.8823C46.6128 99.6477 47.6854 98.9269 48.504 97.72C48.944 97.0713 49.2432 96.3216 49.4017 95.4709C49.5526 94.6151 49.544 93.7998 49.3757 93.0248L51.6416 93.2401C51.8517 94.1645 51.8399 95.1642 51.6063 96.2393C51.3779 97.3068 50.9567 98.2932 50.3427 99.1984C49.0944 101.039 47.4903 102.154 45.5305 102.542C43.5758 102.924 41.7122 102.513 39.9395 101.311ZM33.3693 115.559C33.6975 115.992 34.1256 116.362 34.6537 116.669C35.7571 117.31 36.8733 117.42 38.0023 117.001C39.1313 116.582 40.0208 115.812 40.6709 114.693C41.1836 113.81 41.4158 112.875 41.3674 111.888C41.319 110.901 41.0336 110.013 40.5112 109.225L40.5386 109.177L40.6431 109.27C40.7174 109.323 40.8327 109.406 40.989 109.518C41.1421 109.617 41.3013 109.715 41.4669 109.811L42.6964 110.526L43.9736 108.327L36.2301 103.829C34.6853 102.932 33.2542 102.664 31.9368 103.027C30.6194 103.389 29.5121 104.343 28.6148 105.888C28.1249 106.731 27.7707 107.659 27.5522 108.67C27.3336 109.681 27.2867 110.561 27.4114 111.308L29.675 111.358C29.5369 109.781 29.8089 108.405 30.491 107.231C31.5302 105.442 32.9444 105.067 34.7335 106.106L34.9818 106.25L34.6178 106.877C34.3752 107.294 34.1512 107.707 33.946 108.115C33.7453 108.515 33.5339 108.988 33.3119 109.533C33.0898 110.079 32.9182 110.601 32.7971 111.1C32.6682 111.594 32.5904 112.118 32.5639 112.672C32.5373 113.226 32.5829 113.737 32.7006 114.206C32.8149 114.662 33.0378 115.113 33.3693 115.559ZM37.5645 114.407C36.9323 114.588 36.3522 114.525 35.8242 114.218C34.2242 113.289 34.3902 111.161 36.3221 107.835L36.6723 107.232L37.1334 107.5C37.756 107.862 38.2897 108.34 38.7343 108.936C39.171 109.527 39.4393 110.199 39.5391 110.953C39.6435 111.698 39.5057 112.398 39.1257 113.053C38.7091 113.77 38.1887 114.221 37.5645 114.407ZM31.7139 131.256L19.0202 124.971L20.2212 122.545L25.3918 125.105L28.5764 118.673L23.4058 116.113L24.6068 113.687L37.3005 119.971L36.0995 122.397L30.6593 119.704L27.4748 126.136L32.9149 128.83L31.7139 131.256ZM24.2888 149.309L8.57666 135.376L9.67093 132.648L30.6559 133.435L29.5922 136.087L23.5755 135.81L20.8017 142.725L25.3424 146.682L24.2888 149.309ZM18.9396 141.198L21.1689 135.64L14.5734 135.336C14.2484 135.314 13.8448 135.28 13.3624 135.234C12.875 135.176 12.468 135.125 12.1414 135.083L11.6515 135.019L11.6311 135.07C12.6375 135.768 13.4198 136.352 13.9779 136.821L18.9396 141.198Z" fill="#05203E"/>
</svg>
