<svg width="30" height="31" viewBox="0 0 30 31" fill="none" xmlns="http://www.w3.org/2000/svg">
<path d="M8.91893 14.4862L4.163 5.97565C3.61614 4.99706 3.34271 4.50777 3.38879 4.10716C3.42899 3.75764 3.61463 3.44125 3.90013 3.23565C4.22735 3 4.78786 3 5.90888 3H8.70241C9.11903 3 9.32734 3 9.51419 3.06017C9.67952 3.11341 9.83195 3.20052 9.96174 3.31595C10.1084 3.4464 10.2142 3.62588 10.4256 3.98484L15.0001 11.75L19.5746 3.98484C19.7861 3.62588 19.8918 3.4464 20.0385 3.31595C20.1683 3.20052 20.3207 3.11341 20.4861 3.06017C20.6729 3 20.8812 3 21.2979 3H24.0914C25.2124 3 25.7729 3 26.1001 3.23565C26.3856 3.44125 26.5713 3.75764 26.6115 4.10716C26.6576 4.50777 26.3841 4.99706 25.8373 5.97565L21.0813 14.4862M13.1251 18L15.0001 16.75V23M13.4376 23H16.5626M20.7454 14.1298C23.9184 17.3028 23.9184 22.4472 20.7454 25.6202C17.5724 28.7933 12.4279 28.7933 9.25488 25.6202C6.08188 22.4472 6.08188 17.3028 9.25488 14.1298C12.4279 10.9567 17.5724 10.9567 20.7454 14.1298Z" stroke="#FAC017" stroke-width="2.5" stroke-linecap="round" stroke-linejoin="round"/>
</svg>
