<svg width="30" height="31" viewBox="0 0 30 31" fill="none" xmlns="http://www.w3.org/2000/svg">
<path d="M20 9.25C20 8.08754 20 7.5063 19.8722 7.02943C19.5255 5.73533 18.5147 4.72453 17.2206 4.37778C16.7437 4.25 16.1625 4.25 15 4.25C13.8375 4.25 13.2563 4.25 12.7794 4.37778C11.4853 4.72453 10.4745 5.73533 10.1278 7.02943C10 7.5063 10 8.08754 10 9.25M6.5 26.75H23.5C24.9001 26.75 25.6002 26.75 26.135 26.4775C26.6054 26.2378 26.9878 25.8554 27.2275 25.385C27.5 24.8502 27.5 24.1501 27.5 22.75V13.25C27.5 11.8499 27.5 11.1498 27.2275 10.615C26.9878 10.1446 26.6054 9.76217 26.135 9.52248C25.6002 9.25 24.9001 9.25 23.5 9.25H6.5C5.09987 9.25 4.3998 9.25 3.86502 9.52248C3.39462 9.76217 3.01217 10.1446 2.77248 10.615C2.5 11.1498 2.5 11.8499 2.5 13.25V22.75C2.5 24.1501 2.5 24.8502 2.77248 25.385C3.01217 25.8554 3.39462 26.2378 3.86502 26.4775C4.3998 26.75 5.09987 26.75 6.5 26.75Z" stroke="url(#paint0_linear_862_3431)" stroke-width="2.5" stroke-linecap="round" stroke-linejoin="round"/>
<defs>
<linearGradient id="paint0_linear_862_3431" x1="3.23222" y1="6.83446" x2="27.8381" y2="9.32289" gradientUnits="userSpaceOnUse">
<stop stop-color="#84C24C"/>
<stop offset="1" stop-color="#6BAA32"/>
</linearGradient>
</defs>
</svg>
