<svg width="30" height="31" viewBox="0 0 30 31" fill="none" xmlns="http://www.w3.org/2000/svg">
<path d="M18.75 3.57225C17.5662 3.20044 16.3065 3 15 3C8.09644 3 2.5 8.59644 2.5 15.5C2.5 22.4036 8.09644 28 15 28C21.9036 28 27.5 22.4036 27.5 15.5C27.5 13.3558 26.9601 11.3378 26.0089 9.57431M21.25 7.6875H21.2563M13.1251 27.8603L13.1252 25.1062C13.1252 24.957 13.1786 24.8127 13.2757 24.6994L16.3829 21.0743C16.6382 20.7763 16.5591 20.3195 16.2184 20.1249L12.6482 18.0847C12.5512 18.0292 12.4708 17.9488 12.4154 17.8518L10.0881 13.7733C9.96695 13.561 9.73322 13.4388 9.48979 13.4605L2.58023 14.0759M26.25 8C26.25 10.7614 23.75 13 21.25 15.5C18.75 13 16.25 10.7614 16.25 8C16.25 5.23858 18.4886 3 21.25 3C24.0114 3 26.25 5.23858 26.25 8ZM21.5625 7.6875C21.5625 7.86009 21.4226 8 21.25 8C21.0774 8 20.9375 7.86009 20.9375 7.6875C20.9375 7.51491 21.0774 7.375 21.25 7.375C21.4226 7.375 21.5625 7.51491 21.5625 7.6875Z" stroke="url(#paint0_linear_862_3441)" stroke-width="2.5" stroke-linecap="round" stroke-linejoin="round"/>
<defs>
<linearGradient id="paint0_linear_862_3441" x1="3.23222" y1="5.87162" x2="27.8855" y2="8.11553" gradientUnits="userSpaceOnUse">
<stop stop-color="#84C24C"/>
<stop offset="1" stop-color="#6BAA32"/>
</linearGradient>
</defs>
</svg>
