<svg width="30" height="31" viewBox="0 0 30 31" fill="none" xmlns="http://www.w3.org/2000/svg">
<path d="M22.1809 4.01598C23.3868 2.77038 25.3794 2.75427 26.6053 3.9802C27.7977 5.17255 27.8199 7.09876 26.6553 8.31827L23.182 11.9555C22.9097 12.2406 22.7736 12.3831 22.6897 12.5501C22.6155 12.6978 22.5713 12.8589 22.5597 13.0239C22.5467 13.2103 22.591 13.4023 22.6796 13.7864L24.8395 23.1459C24.9305 23.5401 24.976 23.7373 24.9613 23.928C24.9483 24.0968 24.9011 24.2611 24.8227 24.4111C24.7341 24.5806 24.591 24.7237 24.3049 25.0098L23.8415 25.4733C23.0838 26.231 22.7049 26.6098 22.3172 26.6784C21.9786 26.7383 21.6303 26.656 21.3543 26.4511C21.0381 26.2163 20.8687 25.7081 20.5299 24.6915L18.0177 17.1549L13.836 21.3366C13.5864 21.5862 13.4616 21.711 13.3781 21.858C13.3042 21.9882 13.2542 22.1306 13.2306 22.2785C13.204 22.4454 13.2235 22.6208 13.2625 22.9716L13.4921 25.0384C13.5311 25.3892 13.5506 25.5646 13.524 25.7316C13.5004 25.8794 13.4504 26.0219 13.3765 26.1521C13.293 26.299 13.1682 26.4239 12.9186 26.6735L12.6717 26.9203C12.0804 27.5117 11.7847 27.8073 11.4561 27.893C11.1679 27.9681 10.8624 27.9378 10.5946 27.8076C10.2892 27.6592 10.0572 27.3113 9.59336 26.6155L7.63296 23.6749C7.55008 23.5506 7.50864 23.4885 7.46054 23.4321C7.4178 23.382 7.37118 23.3354 7.3211 23.2926C7.26473 23.2445 7.20257 23.2031 7.07826 23.1202L4.13765 21.1598C3.44184 20.6959 3.09394 20.464 2.94554 20.1586C2.81538 19.8908 2.78512 19.5852 2.86023 19.2971C2.94585 18.9685 3.24152 18.6728 3.83284 18.0815L4.07972 17.8346C4.32933 17.585 4.45413 17.4602 4.60111 17.3767C4.73131 17.3028 4.87374 17.2528 5.02162 17.2292C5.18854 17.2026 5.36396 17.2221 5.7148 17.2611L7.78153 17.4907C8.13237 17.5297 8.30779 17.5492 8.47471 17.5226C8.62259 17.499 8.76502 17.449 8.89522 17.3751C9.0422 17.2916 9.167 17.1668 9.41661 16.9172L13.5983 12.7355L6.06166 10.2233C5.04513 9.88446 4.53686 9.71504 4.30212 9.3989C4.09714 9.12285 4.01492 8.77456 4.0748 8.43598C4.14339 8.04824 4.52223 7.6694 5.27991 6.91172L5.74337 6.44826C6.02949 6.16214 6.17254 6.01908 6.34204 5.93047C6.49205 5.85204 6.65643 5.8049 6.82521 5.7919C7.0159 5.77721 7.21303 5.82271 7.6073 5.91369L16.9312 8.06536C17.3187 8.15477 17.5124 8.19948 17.6994 8.18618C17.88 8.17334 18.0556 8.12142 18.2142 8.03403C18.3784 7.94351 18.5167 7.80068 18.7933 7.51501L22.1809 4.01598Z" stroke="url(#paint0_linear_862_3426)" stroke-width="2.5" stroke-linecap="round" stroke-linejoin="round"/>
<defs>
<linearGradient id="paint0_linear_862_3426" x1="3.54309" y1="5.92696" x2="27.8978" y2="8.12874" gradientUnits="userSpaceOnUse">
<stop stop-color="#84C24C"/>
<stop offset="1" stop-color="#6BAA32"/>
</linearGradient>
</defs>
</svg>
