<svg width="30" height="31" viewBox="0 0 30 31" fill="none" xmlns="http://www.w3.org/2000/svg">
<path d="M15 19.2499L11.25 15.4999M15 19.2499C16.7461 18.5859 18.4211 17.7483 20 16.7499M15 19.2499V25.4999C15 25.4999 18.7875 24.8124 20 22.9999C21.35 20.9749 20 16.7499 20 16.7499M11.25 15.4999C11.9152 13.7742 12.7528 12.12 13.75 10.5624C15.2065 8.23368 17.2345 6.31625 19.6413 4.99256C22.048 3.66886 24.7533 2.98291 27.5 2.99994C27.5 6.39994 26.525 12.3749 20 16.7499M11.25 15.4999H5C5 15.4999 5.6875 11.7124 7.5 10.4999C9.525 9.14994 13.75 10.4999 13.75 10.4999M5.625 21.1249C3.75 22.6999 3.125 27.3749 3.125 27.3749C3.125 27.3749 7.8 26.7499 9.375 24.8749C10.2625 23.8249 10.25 22.2124 9.2625 21.2374C8.77663 20.7737 8.13662 20.5057 7.46528 20.485C6.79395 20.4642 6.1386 20.6921 5.625 21.1249Z" stroke="#D58CF7" stroke-width="2.5" stroke-linecap="round" stroke-linejoin="round"/>
</svg>
