<svg width="20" height="20" viewBox="0 0 20 20" fill="none" xmlns="http://www.w3.org/2000/svg">
<g clip-path="url(#clip0_569_7644)">
<path d="M7.57533 7.5C7.77125 6.94306 8.15795 6.47343 8.66695 6.17428C9.17596 5.87514 9.7744 5.76579 10.3563 5.8656C10.9382 5.96541 11.466 6.26794 11.8462 6.71961C12.2264 7.17128 12.4345 7.74294 12.4337 8.33334C12.4337 10 9.93366 10.8333 9.93366 10.8333M10.0003 14.1667H10.0087M18.3337 10C18.3337 14.6024 14.6027 18.3333 10.0003 18.3333C5.39795 18.3333 1.66699 14.6024 1.66699 10C1.66699 5.39763 5.39795 1.66667 10.0003 1.66667C14.6027 1.66667 18.3337 5.39763 18.3337 10Z" stroke="#05203E" stroke-width="1.5" stroke-linecap="round" stroke-linejoin="round"/>
</g>
<defs>
<clipPath id="clip0_569_7644">
<rect width="20" height="20" fill="white"/>
</clipPath>
</defs>
</svg>
