<svg width="20" height="20" viewBox="0 0 20 20" fill="none" xmlns="http://www.w3.org/2000/svg">
<g clip-path="url(#clip0_569_7646)">
<path d="M4.16699 11.9053C2.62419 12.5859 1.66699 13.5343 1.66699 14.5833C1.66699 16.6544 5.39795 18.3333 10.0003 18.3333C14.6027 18.3333 18.3337 16.6544 18.3337 14.5833C18.3337 13.5343 17.3765 12.5859 15.8337 11.9053M15.0003 6.66667C15.0003 10.0531 11.2503 11.6667 10.0003 14.1667C8.75033 11.6667 5.00033 10.0531 5.00033 6.66667C5.00033 3.90525 7.2389 1.66667 10.0003 1.66667C12.7617 1.66667 15.0003 3.90525 15.0003 6.66667ZM10.8337 6.66667C10.8337 7.12691 10.4606 7.5 10.0003 7.5C9.54009 7.5 9.16699 7.12691 9.16699 6.66667C9.16699 6.20643 9.54009 5.83334 10.0003 5.83334C10.4606 5.83334 10.8337 6.20643 10.8337 6.66667Z" stroke="#05203E" stroke-width="1.5" stroke-linecap="round" stroke-linejoin="round"/>
</g>
<defs>
<clipPath id="clip0_569_7646">
<rect width="20" height="20" fill="white"/>
</clipPath>
</defs>
</svg>
