<svg width="56" height="56" viewBox="0 0 56 56" fill="none" xmlns="http://www.w3.org/2000/svg">
<path d="M32.667 21H26.8337C24.9007 21 23.3337 22.567 23.3337 24.5C23.3337 26.433 24.9007 28 26.8337 28H29.167C31.1 28 32.667 29.567 32.667 31.5C32.667 33.433 31.1 35 29.167 35H23.3337M28.0003 18.6667V21M28.0003 35V37.3334M42.0003 28H42.0237M14.0003 28H14.0237M4.66699 19.1334L4.66699 36.8667C4.66699 39.4803 4.66699 40.7871 5.17563 41.7853C5.62304 42.6634 6.33695 43.3773 7.21504 43.8247C8.21329 44.3334 9.52008 44.3334 12.1337 44.3334L43.867 44.3334C46.4806 44.3334 47.7874 44.3334 48.7856 43.8247C49.6637 43.3773 50.3776 42.6634 50.825 41.7853C51.3337 40.7871 51.3337 39.4803 51.3337 36.8667V19.1334C51.3337 16.5198 51.3337 15.213 50.825 14.2147C50.3776 13.3366 49.6637 12.6227 48.7856 12.1753C47.7874 11.6667 46.4806 11.6667 43.867 11.6667L12.1337 11.6667C9.52008 11.6667 8.21329 11.6667 7.21504 12.1753C6.33695 12.6227 5.62304 13.3366 5.17563 14.2147C4.66699 15.213 4.66699 16.5198 4.66699 19.1334ZM43.167 28C43.167 28.6444 42.6447 29.1667 42.0003 29.1667C41.356 29.1667 40.8337 28.6444 40.8337 28C40.8337 27.3557 41.356 26.8334 42.0003 26.8334C42.6447 26.8334 43.167 27.3557 43.167 28ZM15.167 28C15.167 28.6444 14.6447 29.1667 14.0003 29.1667C13.356 29.1667 12.8337 28.6444 12.8337 28C12.8337 27.3557 13.356 26.8334 14.0003 26.8334C14.6447 26.8334 15.167 27.3557 15.167 28Z" stroke="#7BB745" stroke-width="3" stroke-linecap="round" stroke-linejoin="round"/>
</svg>
