<svg width="56" height="56" viewBox="0 0 56 56" fill="none" xmlns="http://www.w3.org/2000/svg">
<path d="M23.3333 4.66689V15.5412C23.3333 16.0479 23.3333 16.3013 23.2561 16.5029C23.1833 16.693 23.0868 16.831 22.9334 16.9648C22.7707 17.1067 22.5072 17.2032 21.9802 17.3963C15.2808 19.8505 10.5 26.2836 10.5 33.8334C10.5 43.4983 18.335 51.3334 28 51.3334C37.665 51.3334 45.5 43.4983 45.5 33.8334C45.5 26.2836 40.7192 19.8505 34.0198 17.3963C33.4928 17.2032 33.2293 17.1067 33.0666 16.9648C32.9132 16.831 32.8167 16.693 32.7439 16.5029C32.6667 16.3013 32.6667 16.0479 32.6667 15.5412V4.66689M19.8333 4.66669H36.1667" stroke="#D58CF7" stroke-width="3" stroke-linecap="round" stroke-linejoin="round"/>
</svg>
