<svg width="56" height="56" viewBox="0 0 56 56" fill="none" xmlns="http://www.w3.org/2000/svg">
<path d="M27.9998 49L27.7664 48.6498C26.1455 46.2186 25.3351 45.0029 24.2644 44.1229C23.3165 43.3438 22.2243 42.7593 21.0502 42.4027C19.7241 42 18.2631 42 15.3411 42H12.1332C9.51959 42 8.2128 42 7.21455 41.4914C6.33646 41.044 5.62255 40.33 5.17514 39.452C4.6665 38.4537 4.6665 37.1469 4.6665 34.5333V14.4667C4.6665 11.8531 4.6665 10.5463 5.17514 9.54804C5.62255 8.66995 6.33646 7.95605 7.21455 7.50864C8.2128 7 9.51959 7 12.1332 7H13.0665C18.2937 7 20.9072 7 22.9037 8.01727C24.6599 8.91209 26.0877 10.3399 26.9826 12.0961C27.9998 14.0926 27.9998 16.7062 27.9998 21.9333M27.9998 49V21.9333M27.9998 49L28.2333 48.6498C29.8541 46.2186 30.6645 45.0029 31.7353 44.1229C32.6832 43.3438 33.7754 42.7593 34.9494 42.4027C36.2756 42 37.7366 42 40.6586 42H43.8665C46.4801 42 47.7869 42 48.7851 41.4914C49.6632 41.044 50.3771 40.33 50.8245 39.452C51.3332 38.4537 51.3332 37.1469 51.3332 34.5333V14.4667C51.3332 11.8531 51.3332 10.5463 50.8245 9.54804C50.3771 8.66995 49.6632 7.95605 48.7851 7.50864C47.7869 7 46.4801 7 43.8665 7H42.9332C37.706 7 35.0924 7 33.0959 8.01727C31.3397 8.91209 29.9119 10.3399 29.0171 12.0961C27.9998 14.0926 27.9998 16.7062 27.9998 21.9333" stroke="#0296E5" stroke-width="3" stroke-linecap="round" stroke-linejoin="round"/>
</svg>
