<svg width="56" height="56" viewBox="0 0 56 56" fill="none" xmlns="http://www.w3.org/2000/svg">
<path d="M49 49H10.7333C9.42654 49 8.77315 49 8.27402 48.7457C7.83498 48.522 7.47802 48.165 7.25432 47.726C7 47.2268 7 46.5735 7 45.2667V7M49 16.3333L36.3199 29.0134C35.8579 29.4754 35.6269 29.7064 35.3605 29.793C35.1262 29.8691 34.8738 29.8691 34.6395 29.793C34.3731 29.7064 34.1421 29.4754 33.6801 29.0134L29.3199 24.6533C28.8579 24.1912 28.6269 23.9602 28.3605 23.8737C28.1262 23.7975 27.8738 23.7975 27.6395 23.8737C27.3731 23.9602 27.1421 24.1912 26.6801 24.6533L16.3333 35M49 16.3333H39.6667M49 16.3333V25.6667" stroke="#0296E5" stroke-width="3" stroke-linecap="round" stroke-linejoin="round"/>
</svg>
