<svg width="122" height="132" viewBox="0 0 122 132" fill="none" xmlns="http://www.w3.org/2000/svg">
<path fill-rule="evenodd" clip-rule="evenodd" d="M85.1941 34.4211L85.3547 40.1535L87.7613 38.3722L87.5025 32.1853L89.4146 30.77L92.4647 34.891L94.6516 33.2724L86.2251 21.8876L81.6755 25.2549C80.4374 26.1713 79.6788 27.2147 79.3998 28.3851C79.1227 29.5427 79.4071 30.693 80.253 31.8359C80.8657 32.6637 81.6298 33.1981 82.5452 33.4391C83.4606 33.68 84.3368 33.6382 85.1738 33.3135L85.19 33.3355L85.1892 33.4722C85.1813 33.5688 85.1767 33.7082 85.1756 33.8905C85.1744 34.0728 85.1806 34.2497 85.1941 34.4211ZM84.246 31.2787C83.5427 31.2323 82.9388 30.8685 82.4345 30.1872C81.426 28.8245 81.7239 27.5494 83.3283 26.3619L85.1525 25.0117L88.2352 29.1766L86.345 30.5756C85.6491 31.0907 84.9494 31.3251 84.246 31.2787ZM73.9752 49.7911L64.7828 39.0152L66.7591 37.3293L72.2426 43.7574C72.8873 44.5133 73.2776 45.013 73.4135 45.2565L73.4551 45.221C73.3786 44.9628 73.2865 44.2087 73.1787 42.9589L72.3447 32.5646L74.3418 30.8609L83.5341 41.6369L81.5371 43.3405L76.0536 36.9124C75.882 36.7113 75.6529 36.4216 75.3661 36.0432C75.0734 35.658 74.9152 35.4515 74.8915 35.4237L74.8499 35.4592C74.8823 35.5394 74.9785 36.284 75.1382 37.6932L75.9515 48.1053L73.9752 49.7911ZM51.5314 51.9146L65.471 65.9333L67.3905 64.0246L62.85 59.4583C62.5094 59.1158 62.1912 58.8474 61.8952 58.6532L61.934 58.6146C62.8165 58.804 63.6834 58.7775 64.5348 58.535C65.3862 58.2925 66.1286 57.8563 66.762 57.2265C68.0935 55.9026 68.7037 54.3382 68.5928 52.5333C68.4884 50.7219 67.6489 49.0245 66.0743 47.441C64.5062 45.864 62.8459 44.9892 61.0933 44.8167C59.3343 44.6377 57.7794 45.2198 56.4286 46.563C55.6854 47.3021 55.1803 48.1321 54.9135 49.0529C54.6466 49.9738 54.6537 50.8923 54.9347 51.8082L54.8959 51.8468L54.2021 51.0328L53.3152 50.1408L51.5314 51.9146ZM60.4414 56.5319C59.7076 56.2076 59.0355 55.7384 58.4249 55.1244C57.236 53.9287 56.6174 52.7507 56.5691 51.5905C56.5208 50.4303 56.9071 49.4421 57.7279 48.6259C58.5681 47.7904 59.5778 47.442 60.7568 47.5807C61.9423 47.7129 63.0717 48.3187 64.145 49.3981C65.2439 50.5033 65.8336 51.6522 65.914 52.8447C66.0009 54.0309 65.6307 55.0352 64.8034 55.8578C64.2153 56.4427 63.5247 56.7823 62.7317 56.8767C61.9451 56.9647 61.1817 56.8498 60.4414 56.5319ZM44.8341 70.1877C43.7815 69.273 43.0494 68.1839 42.6378 66.9206C42.2263 65.6573 42.1628 64.3825 42.4474 63.0963C42.7379 61.8031 43.3376 60.6337 44.2464 59.588C44.9339 58.7968 45.7236 58.1729 46.6155 57.7163C47.5134 57.2528 48.4308 56.9753 49.3676 56.8838C50.3105 56.7854 51.2608 56.8868 52.2188 57.188C53.1767 57.4891 54.0512 57.9834 54.8424 58.671C55.9019 59.5917 56.6408 60.6867 57.0593 61.956C57.4709 63.2193 57.5348 64.5005 57.2511 65.7997C56.9734 67.0919 56.3802 68.2609 55.4714 69.3066C54.5567 70.3592 53.4759 71.1165 52.229 71.5786C50.9822 72.0408 49.7046 72.1561 48.3962 71.9248C47.0809 71.6874 45.8936 71.1084 44.8341 70.1877ZM46.6546 68.0928C47.7622 69.0554 48.9886 69.4992 50.3337 69.4244C51.6787 69.3495 52.7996 68.7961 53.6964 67.7641C54.5813 66.7459 54.97 65.5622 54.8625 64.2129C54.755 62.8637 54.1475 61.7078 53.0398 60.7452C51.9459 59.7946 50.7269 59.3632 49.3828 59.4509C48.0386 59.5387 46.9241 60.0916 46.0393 61.1098C45.1425 62.1418 44.7474 63.326 44.8539 64.6623C44.9605 65.9987 45.5607 67.1422 46.6546 68.0928ZM30.4787 77.5012L32.3345 78.9004L35.2976 74.9704L44.7515 82.0982L46.373 79.9476L36.9191 72.8198L39.9068 68.857L38.051 67.4578L30.4787 77.5012ZM34.095 97.6695L22.2467 89.9082L23.73 87.6438L28.5105 90.7753L29.6043 89.1055L26.9365 82.7489L28.6296 80.1642L31.6682 87.8261L31.7139 87.8561L40.785 87.4567L39.017 90.1557L31.567 90.3259L30.4433 92.0414L35.5783 95.4051L34.095 97.6695ZM14.1576 103.984L26.4956 110.941L27.7714 108.678L23.4264 99.1812C22.7917 97.913 22.4453 97.2468 22.3873 97.1827L22.4141 97.1351C22.4459 97.153 22.6654 97.2925 23.0728 97.5535C23.4722 97.8101 23.7871 98.0034 24.0173 98.1332L31.3773 102.283L32.6665 99.9963L20.3285 93.0398L19.0392 95.3264L23.3977 104.8C23.9288 105.936 24.2747 106.612 24.4353 106.829L24.4084 106.876C24.1971 106.694 23.6587 106.359 22.7933 105.871L15.4334 101.722L14.1576 103.984ZM1.1015 118.265L19.0286 126.599L22.0198 120.164C22.3887 119.371 22.627 118.577 22.7349 117.783C22.8345 116.985 22.8006 116.225 22.6332 115.504C22.4615 114.771 22.1202 114.1 21.6094 113.49C21.0904 112.877 20.4217 112.38 19.6035 112C18.5703 111.52 17.5341 111.36 16.4947 111.52C15.4592 111.672 14.588 112.151 13.881 112.958L13.8315 112.935C13.7988 112.076 13.54 111.292 13.0549 110.584C12.5616 109.872 11.881 109.315 11.0132 108.911C9.59157 108.25 8.25293 108.211 6.99724 108.793C5.73328 109.372 4.74013 110.438 4.01779 111.992L1.1015 118.265ZM19.8954 119.026L18.0166 123.068L11.8921 120.22L13.771 116.179C14.2051 115.245 14.832 114.632 15.6514 114.339C16.4747 114.038 17.341 114.099 18.2501 114.522C19.1924 114.96 19.8136 115.58 20.1137 116.383C20.4139 117.186 20.3411 118.067 19.8954 119.026ZM11.5556 115.496L9.80928 119.252L4.45347 116.762L6.18826 113.031C6.57633 112.196 7.11956 111.654 7.81794 111.406C8.51633 111.158 9.26638 111.22 10.0681 111.593C10.8698 111.966 11.4113 112.509 11.6927 113.223C11.974 113.936 11.9283 114.694 11.5556 115.496Z" fill="#05203E"/>
</svg>
