<svg width="96" height="114" viewBox="0 0 96 114" fill="none" xmlns="http://www.w3.org/2000/svg">
<path fill-rule="evenodd" clip-rule="evenodd" d="M43.7901 49.6498L54.2925 59.1535L56.1089 57.1463L51.6078 53.0733L56.4239 47.7511L60.9249 51.8241L62.7413 49.8169L52.2388 40.3132L50.4225 42.3204L54.7005 46.1916L49.8845 51.5138L45.6064 47.6426L43.7901 49.6498ZM41.5421 68.988C41.0619 68.6108 40.6894 68.1849 40.4247 67.7104C40.1584 67.2231 40.0004 66.7455 39.9507 66.2776C39.8994 65.7969 39.9254 65.2842 40.0287 64.7395C40.1321 64.1948 40.282 63.6867 40.4785 63.2152C40.6678 62.738 40.9104 62.2447 41.2062 61.7353C41.5021 61.2259 41.7772 60.7872 42.0315 60.419C42.2915 60.0438 42.5707 59.6662 42.8691 59.2863L43.3167 58.7164L43.0909 58.5391C41.4638 57.2611 40.0113 57.4356 38.7332 59.0627C37.8944 60.1307 37.4336 61.4551 37.3509 63.0359L35.1163 62.6715C35.0967 61.9144 35.2655 61.0502 35.6227 60.0791C35.9799 59.1079 36.4597 58.2388 37.0621 57.4719C38.1656 56.067 39.3949 55.2766 40.7499 55.1008C42.1049 54.925 43.4849 55.3889 44.8898 56.4924L51.9322 62.024L50.3614 64.0238L49.2432 63.1455C49.0927 63.0273 48.9485 62.9083 48.8108 62.7885C48.6715 62.6559 48.5689 62.5579 48.5028 62.4945L48.4122 62.3885L48.3784 62.4315C48.786 63.2848 48.9451 64.2037 48.8557 65.1882C48.7663 66.1726 48.4063 67.0662 47.7757 67.869C46.9762 68.8868 45.9883 69.5249 44.8119 69.783C43.6355 70.0412 42.5456 69.7762 41.5421 68.988ZM43.0422 66.724C43.5225 67.1012 44.0882 67.2442 44.7393 67.153C45.3833 67.0562 45.9615 66.6816 46.4738 66.0293C46.9411 65.4344 47.175 64.7604 47.1754 64.0074C47.1814 63.2472 47.0093 62.5441 46.659 61.8981C46.3016 61.2464 45.8398 60.6982 45.2735 60.2535L44.8542 59.9241L44.4235 60.4724C42.0476 63.4973 41.5872 65.5811 43.0422 66.724ZM25.1924 74.58L36.8876 82.5702L40.2965 77.5806C41.186 76.2786 41.6084 75.0384 41.5637 73.8598C41.5189 72.6811 40.966 71.7294 39.9048 71.0044C39.235 70.5468 38.5143 70.3414 37.7427 70.3882C36.9763 70.4275 36.2648 70.7418 35.6084 71.331L35.5859 71.3155C35.7125 70.6293 35.6503 69.9852 35.3992 69.3832C35.1482 68.7812 34.7367 68.2848 34.1648 67.894C33.2015 67.2359 32.2211 67.0794 31.2236 67.4245C30.2261 67.7696 29.3161 68.5443 28.4934 69.7484L25.1924 74.58ZM38.4883 76.8585L36.8455 79.263L33.1654 76.7487L34.7927 74.3668C35.3172 73.5991 35.8864 73.1215 36.5003 72.9338C37.1119 72.7334 37.7074 72.8312 38.2869 73.2271C38.8513 73.6128 39.1603 74.1219 39.2138 74.7545C39.2649 75.3745 39.023 76.0758 38.4883 76.8585ZM33.1679 73.5216L31.664 75.7229L28.2661 73.4014L29.7237 71.2679C30.6698 69.8831 31.681 69.5584 32.7572 70.2936C33.3141 70.6741 33.6323 71.1454 33.7119 71.7076C33.7966 72.2622 33.6153 72.8669 33.1679 73.5216ZM9.04984 90.9531L26.2308 100.733L27.5767 98.3686L20.7941 84.3608C20.3904 83.5961 19.8275 82.6411 19.1055 81.496L19.1325 81.4485L19.5281 81.7208C19.7839 81.8979 20.1149 82.1178 20.5212 82.3805C20.9275 82.6433 21.2732 82.8558 21.5584 83.0181L32.7035 89.3623L34.0629 86.9741L16.8819 77.1941L15.536 79.5585L22.3219 93.5053C22.7098 94.261 23.2761 95.2284 24.0208 96.4074L23.9938 96.4549L23.5982 96.1826C23.3424 96.0055 23.0114 95.7856 22.6051 95.5229C22.1988 95.2601 21.853 95.0476 21.5679 94.8853L10.4228 88.5411L9.04984 90.9531Z" fill="#05203E"/>
</svg>
