<svg width="106" height="125" viewBox="0 0 106 125" fill="none" xmlns="http://www.w3.org/2000/svg">
<path fill-rule="evenodd" clip-rule="evenodd" d="M63.1056 51.0525C63.301 51.5596 63.6098 52.0336 64.0322 52.4747C64.9148 53.3962 65.9566 53.812 67.1576 53.7219C68.3586 53.6318 69.4264 53.1392 70.3612 52.244C71.0985 51.5379 71.5806 50.7038 71.8077 49.7418C72.0348 48.7797 72.0066 47.8476 71.7231 46.9454L71.7626 46.9076L71.8374 47.0252C71.8939 47.0974 71.9817 47.2088 72.1009 47.3597C72.2204 47.4976 72.3464 47.6357 72.4788 47.774L73.4622 48.8009L75.2988 47.042L69.1049 40.5745C67.8693 39.2843 66.5683 38.6308 65.202 38.6142C63.8357 38.5976 62.5075 39.2071 61.2172 40.4427C60.5129 41.1172 59.9156 41.9101 59.4253 42.8214C58.935 43.7327 58.6463 44.5645 58.5591 45.3168L60.7202 45.992C61.0245 44.4386 61.6671 43.1922 62.6479 42.2528C64.1422 40.8218 65.6049 40.8534 67.0359 42.3477L67.2345 42.555L66.7112 43.0562C66.3623 43.3903 66.0328 43.7249 65.7225 44.0598C65.4189 44.3885 65.0848 44.7842 64.7202 45.2469C64.3557 45.7096 64.0461 46.1638 63.7915 46.6096C63.5306 47.0488 63.3107 47.5307 63.1317 48.0555C62.9528 48.5802 62.8549 49.0841 62.838 49.5673C62.8214 50.0375 62.9106 50.5326 63.1056 51.0525ZM67.4558 51.1079C66.7983 51.1065 66.2584 50.8854 65.836 50.4443C64.5562 49.108 65.3053 47.1097 68.0832 44.4493L68.5868 43.967L68.9556 44.3521C69.4536 44.8721 69.8337 45.4799 70.0959 46.1753C70.3517 46.8642 70.4232 47.5845 70.3103 48.3363C70.2039 49.0818 69.8775 49.7162 69.3312 50.2394C68.7321 50.8131 68.107 51.1026 67.4558 51.1079ZM56.4237 66.469L45.9423 56.9421L47.7631 54.9389L52.0325 58.8195L56.8604 53.508L52.5909 49.6274L54.4117 47.6242L64.893 57.1511L63.0723 59.1543L58.5803 55.0713L53.7524 60.3828L58.2444 64.4658L56.4237 66.469ZM34.4239 71.4233L45.6066 80.1163L47.2008 78.0655L44.2977 68.0333C43.8561 66.6856 43.6113 65.9758 43.5633 65.9039L43.5969 65.8607C43.6256 65.8831 43.8223 66.0533 44.1869 66.3714C44.5444 66.6839 44.8274 66.9212 45.0361 67.0834L51.7068 72.2691L53.3179 70.1966L42.1352 61.5035L40.5242 63.576L43.4441 73.5866C43.8026 74.7888 44.0454 75.5086 44.1725 75.746L44.139 75.7891C43.9566 75.5781 43.4733 75.1678 42.6889 74.558L36.0182 69.3724L34.4239 71.4233ZM41.2127 96.6597L24.7525 85.7099L26.1459 83.6154L27.1931 84.3121L28.0356 84.971L28.0659 84.9255C27.6075 84.0841 27.417 83.1857 27.4944 82.23C27.5718 81.2744 27.9008 80.3602 28.4814 79.4875C29.5365 77.9014 30.9437 77.0203 32.7029 76.8441C34.4546 76.6629 36.2563 77.1882 38.108 78.42C39.9672 79.6568 41.129 81.1522 41.5934 82.9061C42.0628 84.6525 41.7775 86.3073 40.7375 87.8706C40.2428 88.6143 39.6025 89.19 38.8168 89.5978C38.031 90.0056 37.1868 90.2049 36.2844 90.1957L36.2541 90.2412C36.5828 90.3723 36.9483 90.5717 37.3505 90.8392L42.712 94.4059L41.2127 96.6597ZM32.1485 87.4772C32.8694 87.9568 33.6218 88.2821 34.4056 88.4532C35.1945 88.6168 35.9655 88.5768 36.7186 88.3334C37.4767 88.0824 38.0855 87.6116 38.5449 86.921C39.1911 85.9496 39.3531 84.8915 39.0309 83.7467C38.7137 82.5943 37.9063 81.5864 36.6086 80.7232C35.3413 79.8801 34.1136 79.5122 32.9256 79.6196C31.7426 79.7194 30.823 80.2625 30.1667 81.2491C29.5256 82.2128 29.3446 83.2583 29.6238 84.3855C29.903 85.5127 30.7446 86.5432 32.1485 87.4772ZM26.3419 111.687L9.00601 102.184L10.3401 99.7504L21.5856 105.915C21.8733 106.072 22.2224 106.279 22.6329 106.536C23.0433 106.792 23.3779 107.006 23.6365 107.179L24.0364 107.445L24.0627 107.397C23.2991 106.23 22.7174 105.272 22.3174 104.523L15.3083 90.6868L16.6161 88.3011L33.952 97.8038L32.631 100.214L21.3855 94.0493C21.0978 93.8915 20.7487 93.6846 20.3382 93.4284C19.9278 93.1722 19.5932 92.9577 19.3346 92.7847L18.9347 92.5188L18.9084 92.5667C19.6488 93.7001 20.2269 94.6459 20.6429 95.404L27.6496 109.301L26.3419 111.687Z" fill="#05203E"/>
</svg>
