<svg width="84" height="101" viewBox="0 0 84 101" fill="none" xmlns="http://www.w3.org/2000/svg">
<path fill-rule="evenodd" clip-rule="evenodd" d="M43.9045 45.4306C44.1 45.9375 44.409 46.4115 44.8315 46.8524C45.7144 47.7737 46.7564 48.1891 47.9573 48.0986C49.1583 48.0081 50.226 47.5151 51.1605 46.6196C51.8975 45.9133 52.3794 45.0791 52.6062 44.1169C52.8329 43.1548 52.8044 42.2227 52.5206 41.3206L52.5601 41.2827L52.635 41.4004C52.6914 41.4725 52.7793 41.5839 52.8986 41.7348C53.0181 41.8727 53.1441 42.0107 53.2766 42.1489L54.2604 43.1755L56.0964 41.416L49.9003 34.9505C48.6643 33.6607 47.3631 33.0077 45.9968 32.9915C44.6305 32.9754 43.3024 33.5853 42.0126 34.8214C41.3085 35.4961 40.7114 36.2892 40.2214 37.2007C39.7315 38.1121 39.443 38.944 39.3561 39.6964L41.5174 40.3709C41.8212 38.8173 42.4634 37.5707 43.4439 36.631C44.9377 35.1995 46.4004 35.2306 47.8319 36.7244L48.0306 36.9317L47.5074 37.4331C47.1587 37.7673 46.8292 38.102 46.5191 38.437C46.2156 38.7658 45.8816 39.1616 45.5172 39.6244C45.1528 40.0872 44.8434 40.5416 44.5889 40.9874C44.3282 41.4267 44.1084 41.9087 43.9296 42.4335C43.7508 42.9583 43.6531 43.4623 43.6364 43.9454C43.6199 44.4156 43.7093 44.9107 43.9045 45.4306ZM48.2547 45.4845C47.5972 45.4834 47.0572 45.2624 46.6346 44.8215C45.3544 43.4856 46.1029 41.487 48.8799 38.8257L49.3833 38.3433L49.7522 38.7282C50.2504 39.2481 50.6307 39.8557 50.8931 40.5511C51.1492 41.2398 51.2209 41.9601 51.1082 42.712C51.0021 43.4575 50.676 44.092 50.1298 44.6154C49.5309 45.1893 48.9059 45.479 48.2547 45.4845ZM37.1884 60.9025L26.6997 51.3837L28.5189 49.3791L32.7913 53.2565L37.615 47.9412L33.3426 44.0639L35.1618 42.0593L45.6505 51.5781L43.8313 53.5827L39.3362 49.5032L34.5124 54.8184L39.0076 58.8979L37.1884 60.9025ZM15.914 64.927L27.0768 73.6454L28.7431 71.512L23.959 67.7755L28.3771 62.1187L33.1612 65.8552L34.8275 63.7217L23.6647 55.0032L21.9984 57.1367L26.5454 60.688L22.1273 66.3449L17.5802 62.7935L15.914 64.927ZM3.58411 73.0084L16.1585 89.8273L17.7208 87.4675L14.0729 82.6748L18.1864 76.4619L24.0231 77.9487L25.6005 75.5662L5.20684 70.5574L3.58411 73.0084ZM15.8636 75.8095L12.5578 80.8026L8.58223 75.5141C8.13044 74.9417 7.48223 74.2119 6.63761 73.3248L6.6678 73.2792L7.13471 73.4407C7.44599 73.5485 7.83445 73.6799 8.30009 73.8352C8.76315 73.9778 9.15156 74.0929 9.4653 74.1803L15.8636 75.8095Z" fill="#05203E"/>
</svg>
